<?xml version="1.0" encoding="utf-8"?>
<!-- Svg Vector Icons : http://www.onlinewebfonts.com/icon -->
<!DOCTYPE svg PUBLIC "-//W3C//DTD SVG 1.1//EN" "http://www.w3.org/Graphics/SVG/1.1/DTD/svg11.dtd">
<svg version="1.1" xmlns="http://www.w3.org/2000/svg" xmlns:xlink="http://www.w3.org/1999/xlink" x="0px" y="0px" viewBox="0 0 1000 1000" enable-background="new 0 0 1000 1000" xml:space="preserve">
<metadata> Svg Vector Icons : http://www.onlinewebfonts.com/icon </metadata>
<g><g transform="translate(0.000000,511.000000) scale(0.100000,-0.100000)"><path d="M279.2,4372.5C99,4293.9,41.4,4050.4,168,3898.9c94-109.3,115-113.1,814.9-113.1h638.5L2398,666.1c513.9-2061.3,790-3138.9,814.9-3177.2c21.1-30.7,63.3-74.8,92-95.9l53.7-40.3l2582.8-3.8l2582.8-5.7l76.7,44.1c82.4,46,163,174.5,163,262.7c0,88.2-80.5,216.7-163,262.7l-76.7,44.1H6116H3705.7l-115,460.2l-115,460.2h2636.5c2180.2,0,2644.2,3.8,2695.9,26.8c145.7,59.4,122.7-11.5,636.6,2047.9c515.8,2065.1,500.4,1984.6,398.8,2107.3c-101.6,120.8,161.1,113.1-3806.2,113.1H2407.6l-132.3,529.2c-141.9,569.5-163,617.4-293.4,671.1C1891.8,4410.9,365.5,4410.9,279.2,4372.5z M3778.6,2547.1c0-23,134.2-1091,143.8-1152.4l11.5-63.3h-533.1h-533.1l-149.6,600.2c-82.5,327.9-147.7,604-147.7,613.6C2570.6,2560.5,3778.6,2564.4,3778.6,2547.1z M5581,1945v-613.6h-517.7c-283.8,0-517.7,5.8-517.7,11.5c0,23-134.2,1091-143.8,1154.3l-11.5,61.4h596.3H5581V1945z M7373.8,2497.2c-9.6-63.3-143.8-1131.3-143.8-1154.3c0-5.8-232-11.5-517.7-11.5h-517.7V1945v613.6H6789h596.3L7373.8,2497.2z M9205,2545.2c0-9.6-65.2-285.7-147.6-613.6l-149.6-600.2h-533h-533l11.5,63.3c9.6,61.4,143.8,1129.4,143.8,1152.4C7997,2564.4,9205,2560.5,9205,2545.2z M4008.7,706.3c0-23,134.2-1091,143.8-1152.4l11.5-63.3h-418h-418L3178.4,90.8c-82.5,327.9-147.6,604-147.6,613.6C3030.8,719.8,4008.7,723.6,4008.7,706.3z M5581,104.2v-613.6h-402.7c-220.5,0-402.7,5.7-402.7,11.5c0,23-134.2,1091-143.8,1154.3l-11.5,61.4h481.3H5581V104.2z M7143.7,656.5c-9.6-63.3-143.8-1131.3-143.8-1154.3c0-5.8-180.3-11.5-402.7-11.5h-402.7v613.6v613.6h479.4h481.3L7143.7,656.5z M8744.8,704.4c0-9.6-65.2-285.7-147.7-613.6l-149.6-600.2h-418h-418l11.5,63.3c9.6,61.4,143.8,1129.4,143.8,1152.4C7766.9,723.6,8744.8,719.8,8744.8,704.4z"/><path d="M3816.9-2996.3c-433.3-151.5-561.8-692.2-241.6-1012.4c126.6-126.5,241.6-170.7,433.3-172.6c140,0,176.4,7.7,260.8,51.8c145.7,76.7,205.2,134.2,278,268.4c59.4,109.3,65.2,136.1,65.2,283.8c0,151.5-5.7,172.6-69,287.6C4397.9-3025.1,4091.1-2900.4,3816.9-2996.3z"/><path d="M7575.2-2996.3c-433.3-151.5-561.8-692.2-241.6-1012.4c126.5-126.5,241.6-170.7,433.3-172.6c149.6,0,172.6,5.7,283.8,65.2c210.9,115,318.3,299.1,320.2,540.7c0,128.5-7.7,161.1-67.1,278C8165.7-3027,7855.1-2898.5,7575.2-2996.3z"/></g></g>
</svg>